<svg xmlns="http://www.w3.org/2000/svg" width="112" height="112" viewBox="0 0 112 112"><g data-name="Grupo 407"><g data-name="Grupo 397"><path data-name="Trazado 19" d="M8.766 103.234a2.188 2.188 0 0 0-3.094 0l-5.031 5.032a2.188 2.188 0 0 0 3.094 3.094l5.031-5.031a2.188 2.188 0 0 0 0-3.095z" fill="#6a6a6a"/></g><g data-name="Grupo 399"><path data-name="Trazado 20" d="M31.205 108.137a2.186 2.186 0 1 0 .641 1.547 2.2 2.2 0 0 0-.641-1.547z" fill="#6a6a6a"/></g><g data-name="Grupo 406"><g data-name="Grupo 103"><circle data-name="Elipse 3" cx="48" cy="48" r="48" transform="translate(16 11)" fill="#eaeaea"/></g><path data-name="Trazado 17" d="M110.896.287a2.187 2.187 0 0 0-2.2.017L68.613 24.009a2.188 2.188 0 0 0 2.227 3.766l28.762-17.008-53.575 55.587L19.382 58.2l34.774-20.56a2.188 2.188 0 0 0-2.227-3.766L12.887 56.96a2.188 2.188 0 0 0 .473 3.975l31.821 9.735L59.22 96.223a.518.518 0 0 0 .045.069 2.181 2.181 0 0 0 3.4.442l16.148-15.776 30.364 9.289a2.188 2.188 0 0 0 2.828-2.092V2.187a2.188 2.188 0 0 0-1.109-1.9zM59.339 72.019a2.189 2.189 0 0 0-.389 1.246v13.38L49.364 69.2l42.42-44.015zm3.986 17.955V76.221L74.042 79.5zm44.3-4.774L64.641 72.05 107.625 10z" fill="#6a6a6a"/><g data-name="Grupo 395"><path data-name="Trazado 18" d="M35.968 76.033a2.188 2.188 0 0 0-3.094 0l-20.42 20.421a2.188 2.188 0 0 0 3.094 3.094l20.421-20.421a2.187 2.187 0 0 0-.001-3.094z" fill="#6a6a6a"/></g><g data-name="Grupo 401"><path data-name="Trazado 21" d="M47.481 91.861a2.188 2.188 0 0 0-3.094 0l-10.816 10.816a2.188 2.188 0 0 0 3.094 3.094l10.816-10.816a2.188 2.188 0 0 0 0-3.094z" fill="#6a6a6a"/></g><g data-name="Grupo 403"><path data-name="Trazado 22" d="M84.81 91.031a2.188 2.188 0 0 0-3.094 0l-10.845 10.848a2.188 2.188 0 1 0 3.094 3.094l10.846-10.846a2.188 2.188 0 0 0-.001-3.096z" fill="#6a6a6a"/></g><g data-name="Grupo 405"><path data-name="Trazado 23" d="M62.016 29.818a2.186 2.186 0 1 0 .641 1.549 2.2 2.2 0 0 0-.641-1.549z" fill="#6a6a6a"/></g></g></g></svg>