<?xml version="1.0" encoding="utf-8"?>
<svg viewBox="0 0 128.76 138.4" xmlns="http://www.w3.org/2000/svg">
  <defs>
    <style>.cls-1{fill:#e4f9c7;}.cls-2{fill:#6cab27;}</style>
  </defs>
  <g id="Layer_2" data-name="Layer 2">
    <g id="Layer_1-2" data-name="Layer 1">
      <path class="cls-2" d="M125.7,1.47a8.74,8.74,0,0,0-10.58.69,5.33,5.33,0,0,0-2.21,4.16,2.21,2.21,0,0,1-.84,1.86Q103.32,16,94.61,23.8c-.28.25-.58.48-.93.76L84,15.61l-5.47,5.65c1.74,3.18,3.57,6.5,5.44,9.91L71.22,42.89c-.45-.21-.83-.39-1.2-.58-1.59-.83-3.2-1.62-4.75-2.52a1.88,1.88,0,0,0-2.21.05c-1.34.83-2.74,1.57-4.11,2.35l-1.9,1.07L44.68,31.65,50.35,21a41.12,41.12,0,0,0-5.58-5.42L34.68,25c-.37-.32-.67-.56-1-.81Q25.2,16.45,16.64,8.73a2.9,2.9,0,0,1-1.13-2.28C15.5,4,14.09,2.27,12.19,1,10-.51,4.41-.55,1.87,2.56-2,7.32.66,13.72,5.15,14.91c.49.14,1,.35,1.47.44A3,3,0,0,1,8.4,16.46c5.19,5.95,10.27,12,15.76,17.68a6.12,6.12,0,0,1,.45.63l-9.19,9.56c.33.4.56.7.82,1q2.07,2.27,4.16,4.52c.94,1,1,1,2.12.28q3.8-2.38,7.57-4.79c.39-.24.78-.46,1.23-.72l5.41,5.81c-.62.24-1,.42-1.46.57a63.22,63.22,0,0,1-10.05,2.45,1.42,1.42,0,0,0-1.35,1.24c-.49,2.29-1.14,4.55-1.63,6.84a70.47,70.47,0,0,0-1.9,13.41,95.59,95.59,0,0,0,.54,14.94A2.57,2.57,0,0,1,20,92.33c-2.43,2.34-4.78,4.76-7.13,7.18a5.2,5.2,0,0,0-1.1,1.68q-5.28,13.25-10.5,26.52c-.12.3-.22.61-.39,1.1.58-.17,1-.27,1.37-.4,8.51-2.9,17-5.83,25.55-8.69,1.42-.48,2.69-1,3.34-2.49l.26-.53c.48.45.79.73,1.08,1,2,2,3.94,4,5.88,6.07a46.39,46.39,0,0,0,15.18,10.9c3.36,1.45,6.89,2.49,10.37,3.65a2.26,2.26,0,0,0,1.45-.21c3-1.32,6-2.59,8.83-4.06,3-1.56,6.05-3.18,8.91-5A72,72,0,0,0,96,118c.29-.3.6-.58,1.08-1l.73,1a4.45,4.45,0,0,0,2.16,1.49q13.3,5,26.59,10c.34.13.7.22,1.22.38-.16-.5-.26-.86-.39-1.2q-5.18-13.49-10.37-27a4.54,4.54,0,0,0-1-1.56c-2.59-2.49-5.18-5-7.84-7.37a2.57,2.57,0,0,1-.94-2.44,91.29,91.29,0,0,0,.45-12.15c-.12-6.13-.09-12.29-1.54-18.32q-.75-3.09-1.52-6.21a71.94,71.94,0,0,1-12.45-3.17L97,44.67l10.89,6,5.18-6L103.8,35c.34-.4.55-.66.78-.91,5.06-5.61,10.15-11.2,15.18-16.83a6.24,6.24,0,0,1,3-1.91c2.77-.81,4.86-2.51,5.47-5.49A18,18,0,0,0,128.44,6,5.41,5.41,0,0,0,125.7,1.47ZM7.57,10.2A2.68,2.68,0,0,1,4.76,7.54,2.74,2.74,0,0,1,7.53,4.81a2.77,2.77,0,0,1,2.76,2.63A2.69,2.69,0,0,1,7.57,10.2Zm4.74,4.46,2.26-2.16L31.49,27.85l-3.54,4ZM22.62,44c-.18.09-.38.14-.56.22L21.88,44l22-21.46a4.46,4.46,0,0,1-.24.91q-3.49,6.26-7,12.49a2.47,2.47,0,0,1-.87.89Q29.2,40.45,22.62,44Zm13.53-1.8a2.56,2.56,0,0,1-.16-.31,17.65,17.65,0,0,1,1.77-1.19,5.82,5.82,0,0,0,2.92-3.37,9.16,9.16,0,0,1,.68-1.3l10.7,9.37c-.54.23-.92.4-1.31.54-2.19.81-4.4,1.61-6.59,2.43a1.15,1.15,0,0,1-1.39-.15C40.58,46.22,38.36,44.22,36.15,42.22ZM23.72,116.29c-4.64,1.57-9.19,3.39-13.78,5.11l-1.34.47a7,7,0,0,1,.21-.91q3.34-8.77,6.73-17.53a2.72,2.72,0,0,1,.77-1.13c2-1.59,4-3.13,6.07-4.69a2.36,2.36,0,0,1,.43-.19l6,14.92C27.24,113.76,26,115.52,23.72,116.29Zm81.48-18a7.76,7.76,0,0,1,.43-1c1.55,1.26,2.89,2.52,4.39,3.55a11.44,11.44,0,0,1,4.38,6c1.66,4.78,3.59,9.48,5.41,14.21.13.35.25.71.43,1.2a4.85,4.85,0,0,1-.79-.15c-5.65-2.28-11.29-4.57-17-6.83-.78-.31-1.1-1-1.65-1.53-1.15-1.08-1-2.11-.41-3.48A77.21,77.21,0,0,0,105.2,98.34ZM98.67,58.62c.37.09.74.21,1.2.35.16,1.12.32,2.25.47,3.38.46,3.68,1.07,7.35,1.33,11a80.7,80.7,0,0,1,0,9.46c-.16,3-.54,6-.92,9a32.55,32.55,0,0,1-.87,3.86,50.3,50.3,0,0,1-5.57,12.86A58.93,58.93,0,0,1,82.9,122.85a44.87,44.87,0,0,1-8.48,5.91,72.26,72.26,0,0,1-9.35,4.15,2.3,2.3,0,0,1-1.71,0,56,56,0,0,1-18.09-10.38,4.91,4.91,0,0,1-.48-.43c-2.15-2.42-4.32-4.83-6.45-7.27a38.84,38.84,0,0,1-4.92-7.76c-1.46-2.84-2.64-5.82-3.94-8.74a26.2,26.2,0,0,1-1.68-6.68,81.29,81.29,0,0,1-1-16.19c.1-3.1.49-6.2.83-9.3.23-2.12.59-4.22.9-6.32,0-.3.13-.58.22-.95,1.82-.45,3.64-.86,5.44-1.35,5.31-1.45,10.64-2.81,15.88-4.45a53.64,53.64,0,0,0,11-5.16l3.16-1.84c1.3.71,2.57,1.33,3.76,2.07a57.84,57.84,0,0,0,17.31,7.11C89.75,56.34,94.21,57.5,98.67,58.62ZM91.82,42.47c-1.84,1.72-3.68,3.43-5.48,5.18a1.86,1.86,0,0,1-2.16.54c-1.39-.51-2.86-.83-4.25-1.33-1.08-.39-2.09-.94-3.14-1.43.5-.85,7.49-7.44,9.86-9.29a14.84,14.84,0,0,1,.86,1.35,6,6,0,0,0,2.92,2.9c.72.35,1.38.81,2.43,1.45A6.92,6.92,0,0,0,91.82,42.47Zm16,2.42a5.63,5.63,0,0,1-2.21-.79c-4.24-2.19-8.46-4.42-12.7-6.63a2.47,2.47,0,0,1-1.15-1.13c-2-3.94-4.11-7.86-6.16-11.79-.41-.8-.72-1.64-1.08-2.45l.15-.18C92.33,29.5,100,37.09,107.83,44.89ZM100.7,31.61l-3.62-3.78L114.3,12.7l2,1.76ZM121,10.2a2.58,2.58,0,0,1-2.61-2.71,2.65,2.65,0,0,1,2.69-2.67,2.71,2.71,0,0,1,2.7,2.8A2.66,2.66,0,0,1,121,10.2Z" style="fill: rgb(90, 255, 82);"/>
      <path class="cls-2" d="M64,65.81A21.3,21.3,0,1,0,85.27,87.23,21.19,21.19,0,0,0,64,65.81Zm.11,36.83A15.54,15.54,0,1,1,79.73,87.11,15.55,15.55,0,0,1,64.14,102.64Z" style="fill: rgb(90, 255, 82);"/>
    </g>
  </g>
</svg>