<?xml version="1.0" encoding="utf-8"?>
<svg viewBox="0 0 83.24 88.57" xmlns="http://www.w3.org/2000/svg">
  <defs>
    <style>.cls-1{fill:#e4f9c7;}.cls-2{fill:#6cab27;}</style>
  </defs>
  <g id="Layer_2" data-name="Layer 2">
    <g id="Layer_1-2" data-name="Layer 1">
      <path class="cls-2" d="M81.07,74.25c0-2.54-.21-4.28-.31-6.73a15.75,15.75,0,0,0-2.41-7c-2.06-3.16-3.42-3.57-7-4.54a85.89,85.89,0,0,0-12.12-1.54c-.6.05-1.21,0-1.88,0a3.9,3.9,0,0,1-.09-.46q-.18-3.09-.35-6.18a28.49,28.49,0,0,1,.53-6.51c.19-1.09.41-2.19.61-3.28a1.13,1.13,0,0,1,.85-.88c.87-.31,1.73-.64,2.56-1a2.83,2.83,0,0,0,1.76-2.56c.1-2.21.17-4.41.22-6.62a2.17,2.17,0,0,0-.19-1,5.13,5.13,0,0,0-2.29-2.55c-.26-.12-.5-.3-.77-.42a.77.77,0,0,1-.49-.79c-.09-2.4-.17-4.8-.33-7.2a12.13,12.13,0,0,0-.54-2.92,15,15,0,0,0-6.48-8.48A21.68,21.68,0,0,0,45.08.45,20.1,20.1,0,0,0,38.43.16a24.74,24.74,0,0,0-6,1.61A14,14,0,0,0,27,5.65a32.48,32.48,0,0,0-3,4,10,10,0,0,0-1.78,4.41c-.08.84-.19,1.69-.22,2.53-.07,2-.11,4-.16,6a3,3,0,0,1,0,.37c-.7.3-1.35.55-2,.86A3.26,3.26,0,0,0,18,27c0,.39,0,.78,0,1.17,0,1.5,0,3,0,4.51a3.57,3.57,0,0,0,1.17,2.66,5.81,5.81,0,0,0,3,1.5c.23,0,.46.11.69.17.27.91.52,1.77.77,2.63a27,27,0,0,0,2.74,6.79,1.44,1.44,0,0,1,.18.82c-.1,1.4-.22,2.8-.34,4.2,0,.46-.38,2.69-.43,3.13-.42.13-2.89.26-3.27.37-3.42.28-5.22.41-8.43.83-1.93.33-3.32.67-4.78,1a10,10,0,0,0-4.37,2.34,10.79,10.79,0,0,0-1.66,2.11c-.81,1.76-.81,1.65-1.57,3.43a27.4,27.4,0,0,0-.93,2.87A52.44,52.44,0,0,0,0,76.84,26.9,26.9,0,0,0,1.33,83c.91,1.84.85,2.07,2.87,2.55.79.5,10.45.25,12.14.51,2.78,0,4.44,0,6.64.1,4.85.2,9.7.37,14.55.44,3.88,0,7.77,0,11.65-.12s7.72-.13,11.54-.41c2.43,0,3.71-.12,6.37-.27l3.13-.24c1-.13,5-.15,6.87-.8a6.62,6.62,0,0,0,3.18-1.94C81.37,80.81,81,76.49,81.07,74.25ZM25.62,13.87A14.8,14.8,0,0,1,28.4,8.8c.61-.72,1.24-1.43,1.9-2.11A12,12,0,0,1,35.52,3.8,19.25,19.25,0,0,1,43.71,3,13.18,13.18,0,0,1,50,5.57c.78.58,1.51,1.23,2.24,1.86a2.75,2.75,0,0,1,.55.58c.89,1.38,1.81,2.75,2.64,4.17a6,6,0,0,1,.63,3.73,1.65,1.65,0,0,1-.52-.75A15.28,15.28,0,0,0,53,11.54a15.71,15.71,0,0,0-4.1-2.85,23.87,23.87,0,0,0-7.11-2.25,14,14,0,0,0-4.42.14,16.21,16.21,0,0,0-4.3,1.31,13.37,13.37,0,0,0-5,4c-1,1.29-1.88,2.63-2.94,4.12A16.92,16.92,0,0,1,25.62,13.87Zm-.25,22.47a40.62,40.62,0,0,1-.64-4.1,28.15,28.15,0,0,1,.48-8.54,13.63,13.63,0,0,1,1.15-3.36,38.65,38.65,0,0,1,3.46-6.14A15,15,0,0,1,34.46,10a7.15,7.15,0,0,1,2.11-.78,16.9,16.9,0,0,1,11.77,1.66,12.89,12.89,0,0,1,4.9,4.66,16.41,16.41,0,0,1,2.06,4.15,27.2,27.2,0,0,1,.83,3.68,36.5,36.5,0,0,1,.21,8.42c-.06.85-.09,1.7-.19,2.54-.14,1.13-.33,2.26-.5,3.38a1.53,1.53,0,0,1-.95,1.19A27.79,27.79,0,0,1,47,41.19c-.29,0-.58.07-.86.12a2,2,0,0,1-2.05-.47,1.6,1.6,0,0,0-1.21-.41l-3.28-.08a1.93,1.93,0,0,0-1.91,1.08,2.59,2.59,0,0,0,.42,2.67,2.09,2.09,0,0,0,1.5.45c1.11,0,2.23-.09,3.33-.21A2.7,2.7,0,0,0,44,43.9a6.21,6.21,0,0,1,2.81-.9,28.68,28.68,0,0,0,5.83-1.49c.69-.21,1.38-.44,2.25-.73-.23,1.41-.37,2.64-.62,3.84a7.44,7.44,0,0,1-2.17,3.65,16.78,16.78,0,0,1-5.59,3.86,10.73,10.73,0,0,1-5.41.75,17.25,17.25,0,0,1-4.83-1.28A12.82,12.82,0,0,1,32.62,49a21.77,21.77,0,0,1-3.91-4.39,22.74,22.74,0,0,1-1.29-2.44A32.71,32.71,0,0,1,25.37,36.34Zm29.2,18.81A1.16,1.16,0,0,1,54,56.3L41.92,64.18l-.3.17-.9-.7C37,60.72,33.3,57.78,29.57,54.87A1.25,1.25,0,0,1,29,53.65c.1-1.16.11-2.33.16-3.49,0-.14,0-.28.06-.51.35.4.64.74.94,1.07a13.74,13.74,0,0,0,5,3.42,16.85,16.85,0,0,0,6.93,1.44,15.85,15.85,0,0,0,5.91-1,18.69,18.69,0,0,0,2.77-1.59,15.91,15.91,0,0,0,3.28-3.07l.23-.2a.93.93,0,0,1,.07.24C54.45,51.66,54.5,53.41,54.57,55.15ZM78.14,77.87c-.47,2.78-.17,3-2,4a23.86,23.86,0,0,1-4.86.62c-2.37.16-4.19.33-5.89.53-3.83.25-8.42.23-12.44.47-1.86.12-3.73,0-5.6.07-6.63.06-13.25.06-19.87-.17-2.69-.09-5.39-.24-8.07-.46-1.1-.09-2.47-.16-3.77-.16-3.06-.1-11,.24-12-2.61a11.2,11.2,0,0,1-.45-3.87c0-.91.14-2.76.27-4.59a27.32,27.32,0,0,1,2.76-9.89,5.09,5.09,0,0,1,2.16-2.24c2.13-.95,9.94-2.14,14.2-2.51.35,0,1.7-.21,2.35-.24.93,0,1.3-.11,2,.43,4.59,3.53,9.33,6.93,13.94,10.45l.63.46.79-.5c5.11-3.3,10.22-6.62,15.34-9.91,1.56-1,3.62-.66,5.41-.41,4.14.84,12.76,1.79,14.18,6.12a28.27,28.27,0,0,1,.93,6.67C78.23,72.43,78.3,74.34,78.14,77.87Z" style="fill: rgb(90, 255, 82);"/>
    </g>
  </g>
</svg>