<?xml version="1.0" encoding="utf-8"?>
<svg viewBox="0 0 154.65 111.14" xmlns="http://www.w3.org/2000/svg">
  <defs>
    <style>.cls-1{fill:#e4f9c7;}.cls-2{fill:#6cab27;}</style>
  </defs>
  <g id="Layer_2" data-name="Layer 2">
    <g id="Layer_1-2" data-name="Layer 1">
      <path class="cls-2" d="M154.65,55.4l-3.07-4.09-.93.65c-1.77,1.32-3.56,2.62-5.32,4a7,7,0,0,1-3.45,1.45,7.57,7.57,0,0,1-7.14-2.54c-.35-.41-.71-.82-1-1.26-8.17-11-16.3-22.1-24.53-33.1a7.92,7.92,0,0,1,1-10.44c1.79-1.58,3.75-3,5.64-4.42.39-.31.79-.6,1.26-1L113.93.49c-.49.35-.9.64-1.3.94-1.48,1.1-2.94,2.25-4.45,3.31a13.74,13.74,0,0,0-4.39,5.15A12.16,12.16,0,0,0,103.65,21c.22.49.46,1,.69,1.47a2.37,2.37,0,0,1-.36.32L95.87,28a3,3,0,0,1-2,.42L87.83,28,74.29,26.9a13.77,13.77,0,0,0-6.11.61,4.25,4.25,0,0,1-1.71.16c-1.3-.08-2.59-.26-3.89-.36a3.71,3.71,0,0,1-2-.77c-2.79-2.07-5.6-4.13-8.4-6.2-.22-.16-.43-.36-.65-.55a6.79,6.79,0,0,1,.2-.78,11.3,11.3,0,0,0,.32-6.12,13.43,13.43,0,0,0-5.27-8.48C45,3.07,43.23,1.79,41.45.49,41.22.32,41,.19,40.68,0L37.56,4.14c.41.32.74.59,1.09.85,1.76,1.27,3.5,2.57,5.29,3.81a7.23,7.23,0,0,1,3,5.07A8.06,8.06,0,0,1,45.39,20c-1.49,2.05-3,4.09-4.52,6.12q-10.38,14-20.76,27.92A6.32,6.32,0,0,1,17.8,56a9,9,0,0,1-5.19.76,5.68,5.68,0,0,1-2.73-1C8,54.38,6.08,53,4.18,51.6c-.31-.23-.64-.44-1-.72L0,55c2.47,1.78,4.79,3.52,7.17,5.16a11.68,11.68,0,0,0,7.32,2C17.87,62,21,61,23.28,58.28c.32-.38.69-.71,1-1.09l11.31,8.69c-.68.67-1.31,1.26-1.9,1.89a14.23,14.23,0,0,0-3.34,5.15,18.54,18.54,0,0,0-.75,4,9.3,9.3,0,0,0,.88,4.74,19.28,19.28,0,0,0,4,5.55c6,5.95,12,11.87,18,17.83a15.67,15.67,0,0,0,8.4,4.47,15.9,15.9,0,0,0,10.25-1.31,1.49,1.49,0,0,1,1.69,0,15.36,15.36,0,0,0,5.6,2.27,28.91,28.91,0,0,0,8.76.41,17,17,0,0,0,9.43-4.06c1.81-1.55,3.67-3,5.52-4.58q8.7-7.22,17.41-14.43a6.61,6.61,0,0,0,1.26-1.33A14.76,14.76,0,0,0,123.27,78a12.82,12.82,0,0,0-2.79-8.26c-.26-.31-.14-.59-.11-.91a17.3,17.3,0,0,0,.11-2.69,1.28,1.28,0,0,1,.5-1.3c2.83-2.31,5.64-4.65,8.47-7a6.14,6.14,0,0,1,.65-.41,17.86,17.86,0,0,0,1.45,1.53,16.58,16.58,0,0,0,2.81,2,14.22,14.22,0,0,0,9.09,1.32,10.06,10.06,0,0,0,4.31-1.67c2.11-1.59,4.26-3.14,6.38-4.72A5.12,5.12,0,0,0,154.65,55.4ZM67.56,104.07a11.37,11.37,0,0,1-9.1-.95,9,9,0,0,1-1.89-1.42q-9.24-9.14-18.44-18.29a12.77,12.77,0,0,1-2.54-3.63,6.52,6.52,0,0,1,.9-7.13c.87-1.14,2-2.12,3-3.23a11.75,11.75,0,0,1,3.08,4.45c.7,1.78,1.49,3.53,2.17,5.33a22.71,22.71,0,0,0,5.7,8.11C55.86,92.59,61.36,97.8,66.83,103a9.51,9.51,0,0,0,1,.71Zm52.52-26.8A4.35,4.35,0,0,1,116.76,81a20,20,0,0,1-6.59.31,15.47,15.47,0,0,1-4.15-.79,11.35,11.35,0,0,1-4.28-2.69c-1.09-1.12-2.16-2.26-3.32-3.29a8.25,8.25,0,0,0-2.26-1.46,4.94,4.94,0,0,0-5.52,1,1.25,1.25,0,0,0,.21.3c3.05,2.85,6.07,5.72,9.15,8.53a11.64,11.64,0,0,0,4.68,2.45,26.87,26.87,0,0,0,6.84,1.12c.47,0,.93.1,1.57.17a8.12,8.12,0,0,1-2.6,2.08,12.62,12.62,0,0,1-5.06,1.53A18.24,18.24,0,0,1,96.38,89a11.09,11.09,0,0,1-3-2.14q-2.13-1.92-4.1-4a5.85,5.85,0,0,0-5.86-1.69c-.77.15-1.52.44-2.44.71.33.37.52.61.74.82,3.2,3,6.39,6.11,9.63,9.13a6.63,6.63,0,0,0,2,1.26,25.07,25.07,0,0,0,6.41,2c.47.06.94.08,1.41.13s.68.09,1,.14l.07.24a20.83,20.83,0,0,1-1.69,1.28c-2.84,1.71-6,1.84-9.16,1.63a11.68,11.68,0,0,1-5.21-1.37,19.08,19.08,0,0,1-3-2.27C82,93.74,81,92.53,79.8,91.44a10.29,10.29,0,0,0-2.15-1.64c-2.25-1.19-4.41-.61-6.73.63l1.25,1.12q4.55,4.22,9.11,8.41a5.81,5.81,0,0,0,1,.7,20.61,20.61,0,0,0,8.1,2.67,13.51,13.51,0,0,0,1.8,0l.09.26a10.31,10.31,0,0,1-1.19.8,17.25,17.25,0,0,1-9.53,1.49,13.86,13.86,0,0,1-7-2.74,9.73,9.73,0,0,1-.91-.77c-6.15-5.95-12.24-12-18.47-17.82a26,26,0,0,1-7-10.35c-.41-1.16-.9-2.29-1.32-3.45A10.9,10.9,0,0,0,44,66.33c-1.6-1.46-3.22-2.92-4.92-4.27-3.57-2.84-7.21-5.6-10.82-8.4L27.4,53,48.59,24.44l1,.68c2.83,1.95,5.65,3.93,8.5,5.86a27.09,27.09,0,0,0,2.53,1.37c-.07.3-.49.49-.8.76L48.28,43a8.66,8.66,0,0,0-2.86,4.14,7.19,7.19,0,0,0,1.42,6.93,10.46,10.46,0,0,0,1.55,1.5,27.62,27.62,0,0,0,7.24,4.35,17.86,17.86,0,0,0,7.91,1A15.93,15.93,0,0,0,69.83,59a27.94,27.94,0,0,0,3.4-2.32c1.17-.9,2.27-1.9,3.4-2.86.87.57,1.65,1.15,2.49,1.63A21.56,21.56,0,0,0,92.77,58,.71.71,0,0,0,93,58c1-.49,1.61,0,2.23.78C97.07,61.19,99,63.6,101,66a25.75,25.75,0,0,0,5.36,4.9A14.49,14.49,0,0,0,115,73.5c.68,0,1.38.1,2.06,0C118.86,73.4,120.29,75.25,120.08,77.27Zm4.07-21.83c-2.1,1.73-4.17,3.5-6.3,5.18a5.79,5.79,0,0,0-2.25,3.94c-.17,1.22-.34,2.43-.52,3.7a8.35,8.35,0,0,1-4.7-1.1,17.68,17.68,0,0,1-5.26-4.48c-2-2.6-4.12-5.15-6.15-7.76a10.37,10.37,0,0,0-2.53-2.19,3,3,0,0,0-2-.39,55.71,55.71,0,0,1-6.18.3,21.1,21.1,0,0,1-4.55-.91A11,11,0,0,1,79.1,48.6a2.72,2.72,0,0,0-3.88-.43,10.9,10.9,0,0,0-.93.75c-2.13,1.73-4.21,3.55-6.42,5.18a9.92,9.92,0,0,1-6.49,1.72A14.57,14.57,0,0,1,53.75,53c-.76-.5-1.46-1.08-2.18-1.62l-.26-.2a2.4,2.4,0,0,1-.25-3.86,11.84,11.84,0,0,1,1-.95C56.76,42.48,61.47,38.67,66,34.7A10.66,10.66,0,0,1,74.13,32c2.46.16,4.92.35,7.37.53l10.3.78c.47,0,1,0,1.41.11A7.84,7.84,0,0,0,99,32.05c2.4-1.62,4.84-3.19,7.26-4.78.33-.21.67-.4,1.06-.64,6.55,8.85,13.07,17.63,19.64,26.51Z" style="fill: rgb(90, 255, 82);"/>
    </g>
  </g>
</svg>